<svg width="20" height="16" viewBox="0 0 20 16" fill="none" xmlns="http://www.w3.org/2000/svg">
<path d="M10.4003 0.0306206H5.52414C5.16132 0.0306206 4.86719 0.322946 4.86719 0.683549C4.86719 1.04415 5.16132 1.33647 5.52414 1.33647H10.4003C10.763 1.33647 11.0572 1.04415 11.0572 0.683549C11.0572 0.322946 10.763 0.0306206 10.4003 0.0306206Z" fill="#7C4DFF"/>
<path d="M10.4003 9.17276H5.52414C5.16132 9.17276 4.86719 9.46509 4.86719 9.82568C4.86719 10.1863 5.16132 10.4786 5.52414 10.4786H10.4003C10.763 10.4786 11.0572 10.1863 11.0572 9.82568C11.0572 9.46509 10.763 9.17276 10.4003 9.17276Z" fill="#7C4DFF"/>
<path d="M9.2754 1.85875H3.27365C2.91082 1.85875 2.6167 2.15107 2.6167 2.51167C2.6167 2.87227 2.91082 3.1646 3.27365 3.1646H9.2754C9.63817 3.1646 9.93233 2.87227 9.93233 2.51167C9.93233 2.15107 9.63817 1.85875 9.2754 1.85875Z" fill="#7C4DFF"/>
<path d="M9.2754 7.34362H3.27365C2.91082 7.34362 2.6167 7.63596 2.6167 7.99655C2.6167 8.35714 2.91082 8.64948 3.27365 8.64948H9.2754C9.63817 8.64948 9.93233 8.35714 9.93233 7.99655C9.93233 7.63596 9.63817 7.34362 9.2754 7.34362Z" fill="#7C4DFF"/>
<path d="M8.05575 3.68687H1.30392C0.941099 3.68687 0.646973 3.9792 0.646973 4.3398C0.646973 4.7004 0.941099 4.99272 1.30392 4.99272H8.05575C8.41859 4.99272 8.71268 4.7004 8.71268 4.3398C8.71268 3.9792 8.41859 3.68687 8.05575 3.68687Z" fill="#7C4DFF"/>
<path d="M8.71268 6.16842C8.71268 5.80967 8.4174 5.515 8.05574 5.515H1.30392C0.943244 5.515 0.646973 5.80869 0.646973 6.16842C0.646973 6.52716 0.942253 6.82184 1.30392 6.82184H8.05672C8.4174 6.82184 8.71366 6.52814 8.71366 6.16842H8.71268Z" fill="#7C4DFF"/>
<path d="M14.8084 14.6551H9.93233C9.56949 14.6551 9.27539 14.9474 9.27539 15.308C9.27539 15.6686 9.56949 15.961 9.93233 15.961H14.8084C15.1712 15.961 15.4654 15.6686 15.4654 15.308C15.4654 14.9474 15.1712 14.6551 14.8084 14.6551Z" fill="#7C4DFF"/>
<path d="M14.8084 5.51449H9.93233C9.56949 5.51449 9.27539 5.80682 9.27539 6.16742C9.27539 6.52802 9.56949 6.82035 9.93233 6.82035H14.8084C15.1712 6.82035 15.4654 6.52802 15.4654 6.16742C15.4654 5.80682 15.1712 5.51449 14.8084 5.51449Z" fill="#7C4DFF"/>
<path d="M17.059 12.827H11.0573C10.6967 12.827 10.4004 13.1207 10.4004 13.4805C10.4004 13.8392 10.6956 14.1339 11.0573 14.1339H17.059C17.4197 14.1339 17.7159 13.8402 17.7159 13.4805C17.7159 13.1217 17.4207 12.827 17.059 12.827Z" fill="#7C4DFF"/>
<path d="M17.059 7.34262H11.0573C10.6945 7.34262 10.4004 7.63495 10.4004 7.99561C10.4004 8.35621 10.6945 8.64854 11.0573 8.64854H17.059C17.4219 8.64854 17.7159 8.35621 17.7159 7.99561C17.7159 7.63495 17.4219 7.34262 17.059 7.34262Z" fill="#7C4DFF"/>
<path d="M19.0289 10.9989H12.2761C11.9154 10.9989 11.6191 11.2926 11.6191 11.6523C11.6191 12.0111 11.9144 12.3057 12.2761 12.3057H19.0289C19.3896 12.3057 19.6859 12.012 19.6859 11.6523C19.6859 11.2936 19.3906 10.9989 19.0289 10.9989Z" fill="#7C4DFF"/>
<path d="M19.0289 9.17074H12.2771C11.9143 9.17074 11.6201 9.46307 11.6201 9.82367C11.6201 10.1843 11.9143 10.4766 12.2771 10.4766H19.0289C19.3917 10.4766 19.6859 10.1843 19.6859 9.82367C19.6859 9.46307 19.3917 9.17074 19.0289 9.17074Z" fill="#7C4DFF"/>
</svg>
